<?xml version="1.0" encoding="utf-8"?>
<!-- Generator: Adobe Illustrator 21.0.2, SVG Export Plug-In . SVG Version: 6.00 Build 0)  -->
<svg version="1.1" xmlns="http://www.w3.org/2000/svg" xmlns:xlink="http://www.w3.org/1999/xlink" x="0px" y="0px"
	 viewBox="0 0 625.8 628.8" style="enable-background:new 0 0 625.8 628.8;" xml:space="preserve">
<style type="text/css">
	.st0{display:none;}
	.st1{display:inline;}
	.st2{fill:#DFDFD0;}
	.st3{fill:#EDDFD3;}
	.st4{fill:#C65C5C;}
	.st5{fill:#DF985E;}
	.st6{fill:#FEFEFE;}
	.st7{fill:#B98051;}
	.st8{fill:#4F5D72;}
	.st9{fill:#465062;}
	.st10{fill:#B9B8AC;}
	.st11{fill:#AE6163;}
	.st12{fill:#D4D7DC;}
	.st13{fill:#6E7883;}
	.st14{fill:#D2D1D1;}
	.st15{fill:#CB4F4F;}
	.st16{fill:#B13939;}
	.st17{fill:#FDFDFD;}
	.st18{fill:#656878;}
	.st19{fill:#282B3A;}
	.st20{fill:#FDEA01;}
	.st21{fill:#FECC01;}
	.st22{fill:#F5E2A0;}
	.st23{fill:#FE4625;}
	.st24{fill:#02B071;}
	.st25{fill:#F5B76C;}
	.st26{fill:#A4484D;}
	.st27{fill:#FEB403;}
	.st28{fill:#0390CF;}
	.st29{fill:#2D303D;}
	.st30{fill:#DEE0E1;}
	.st31{fill:#E64C3C;}
	.st32{fill:#ED634E;}
	.st33{fill:#C03A2C;}
	.st34{fill:#F3F4F5;}
	.st35{fill:#BF392C;}
	.st36{fill:#D34B3A;}
	.st37{fill:#BF392B;}
	.st38{fill:#B0392D;}
	.st39{fill:#B33D31;}
	.st40{fill:#C13D2F;}
	.st41{fill:#FEFDFD;}
	.st42{fill:#4CC4AC;}
	.st43{fill:#3C9785;}
	.st44{fill:#FABE54;}
	.st45{fill:#F5A920;}
	.st46{fill:#475059;}
	.st47{fill:#FDFEFD;}
</style>
<g id="Layer_1" class="st0">
	<g class="st1">
		<path class="st2" d="M322.3,606.9c-6.1,0-12.3,0-18.4,0c-0.4-0.4-0.8-0.3-1.2-0.3c-2.1-0.1-4.3-0.1-6.4-0.2
			c-4.9-0.3-9.8-0.7-14.7-1.2c-7.6-0.7-15.2-1.9-22.8-3.3c-13.4-2.5-26.5-6-39.3-10.3c-10.3-3.5-20.5-7.5-30.3-12.2
			c-13.2-6.2-25.9-13.3-38-21.4c-7.8-5.2-15.3-10.8-22.6-16.7c-7.9-6.4-15.3-13.3-22.5-20.3c-2.9-2.8-5.6-6-8.4-8.9
			c-3.8-3.9-7.3-8.1-10.7-12.3c-7-8.6-13.6-17.6-19.6-27c-4.4-6.9-8.6-14-12.5-21.3c-8.3-15.7-15.2-32-20.5-49
			c-2.7-8.8-5.1-17.7-7-26.7c-2.3-10.9-4.1-21.9-5-32.9c-0.5-5.8-1.1-11.5-1.1-17.3c0-0.6,0.2-1.2-0.3-1.7c0-6.2,0-12.5,0-18.7
			c0.6-0.7,0.2-1.6,0.3-2.3c0-1.8,0.2-3.6,0.2-5.4c0.3-5.7,0.9-11.4,1.5-17.1c0.8-7.9,2.1-15.7,3.6-23.4c2.2-11.3,5.2-22.5,8.8-33.4
			c3.6-11.1,7.9-21.9,12.8-32.4c5.8-12.3,12.3-24.3,19.8-35.7c7-10.7,14.6-21,23-30.7c6.3-7.3,12.8-14.5,19.9-21.1
			c4.8-4.5,9.6-8.9,14.7-13.2c7.6-6.4,15.5-12.4,23.7-18c12-8.1,24.5-15.3,37.6-21.6c10.4-5,21-9.3,31.9-13.1
			c11.6-4,23.4-7.2,35.4-9.6c8.3-1.7,16.6-3,25-4c7.8-0.9,15.7-1.6,23.5-1.7c0.4,0,0.8,0,1.1-0.3c6.3,0,12.7,0,19,0
			c0.3,0.3,0.6,0.3,1,0.3c3.8,0,7.7,0.3,11.5,0.6c4.7,0.3,9.3,0.7,13.9,1.3c8.3,1,16.6,2.4,24.8,4.1c10.7,2.3,21.2,5.1,31.5,8.5
			c12.8,4.2,25.2,9.3,37.3,15.3c9.8,4.8,19.3,10.2,28.4,16.1c10.5,6.8,20.6,14.2,30.1,22.3c7.9,6.7,15.5,13.7,22.7,21.2
			c5.2,5.4,10.2,11,15,16.8c7.2,8.7,13.8,17.8,20,27.3c8.8,13.6,16.4,27.8,22.9,42.7c5.5,12.6,10,25.5,13.6,38.7
			c2.5,9.2,4.6,18.5,6.2,27.9c1.2,7,2.2,14,2.8,21.1c0.5,5.6,1,11.2,1.1,16.9c0.1,0.8-0.3,1.6,0.3,2.3c0,6.2,0,12.5,0,18.7
			c-0.3,0.3-0.3,0.6-0.3,1c0,7.1-0.7,14.2-1.4,21.2c-0.7,7.2-1.8,14.4-3.1,21.5c-2.7,14.6-6.5,28.9-11.3,43
			c-3.3,9.6-7.1,19-11.4,28.1c-7.5,15.8-16.2,30.9-26.4,45.2c-6.6,9.2-13.6,18.1-21.3,26.5c-4.2,4.6-8.4,9.1-12.9,13.3
			c-5.3,5-10.6,10-16.2,14.7c-8.1,6.9-16.6,13.2-25.4,19.1c-6.3,4.2-12.8,8.2-19.4,11.9c-10,5.6-20.2,10.7-30.8,15.1
			c-9.3,3.9-18.7,7.2-28.3,10.1c-7.5,2.3-15.2,4.3-22.9,5.9c-10.9,2.3-21.9,4.1-33.1,5.1c-5.9,0.5-11.7,1.1-17.6,1.1
			C323.4,606.7,322.8,606.5,322.3,606.9z M450.4,265.6c0-5.7,0-11.4,0-17.1c0-8,0-15.9,0-23.9c0-5.6,0-11.1,0-16.7
			c0-0.2,0-0.4,0-0.6c0-19.4,0-38.8,0-58.2c0-0.5,0.1-1.1-0.3-1.6c-0.5-7.5-7.7-16-17.7-16c-79.5,0-158.9,0-238.4,0
			c-9.4,0-17.8,7.8-17.9,17.1c-0.2,12.5,0,25.1,0,37.6c0,0.3,0,0.7,0,1c0,17.6,0,35.2,0,52.8c0,0.4,0,0.8,0.1,1.2c0,6,0,12.1,0,18.1
			c0,8.9,0,17.9,0,26.8c0,0.3,0,0.6,0.3,0.8c0,0.2,0,0.3,0,0.5c-0.4,0.5-0.3,1-0.3,1.5c0,14,0,28,0,41.9c0,0.5-0.1,1.1,0.3,1.5
			c0,3.1,0,6.2,0,9.3c-0.3,0.2-0.3,0.6-0.3,0.9c0,5.8,0,11.5,0.1,17.3c0,3.5,0,7,0,10.5c0,5.8,0,11.6,0,17.4c0,1.1,0.2,2.1,0.4,3.2
			c1.8,8.4,9.5,14.6,17.9,14.6c20.1-0.1,40.3,0,60.4,0c3.2,0,6.4,0.2,9.6,0.9c8.7,1.9,15.6,6.2,19.3,14.6c0.9,2,1.2,4.1,1.8,6.1
			c0,1.2,0.1,2.4,0,3.6c-0.5,5.7-0.7,11.3-1.7,16.9c-1.8,10.5-3.1,21.2-8.2,30.9c-1.6,3.1-2.1,6.8-2.4,10.3
			c-0.3,4.5,0.1,8.9,0.9,13.3c-0.2,0.2-0.3,0.5-0.4,0.8c-0.8,3.3-0.6,6.6-0.6,9.9c0.1,5.6,1.6,10.8,4.1,15.7
			c3.5,7,8.8,12.6,15.5,16.6c9,5.4,18.6,7,28.8,4.8c9-2,16.5-6.6,22.5-13.8c7.3-8.7,10-18.7,9.2-29.9c-0.1-1.5-0.2-3-0.8-4.4
			c0-0.4,0.1-0.8,0.2-1.2c1.2-5.9,1.1-11.8-0.2-17.6c-0.6-2.6-1.7-5-2.9-7.4c-1.6-3.2-2.4-6.7-3.2-10.1c-2.1-8.2-3.5-16.6-4.4-25.1
			c-0.4-4.1-0.7-8.2-0.8-12.3c0.8-2.8,1.4-5.6,2.6-8.2c2.6-5.4,6.4-9.6,12.1-12.1c4.5-2,9.3-2.4,14.1-2.5c20.8-0.1,41.5,0,62.3,0
			c0.9,0,1.8,0.1,2.6-0.1c9-1.5,15.1-8.5,15.6-17.4c0.3-5.9,0-11.8,0-17.7c0-3.5,0-7,0-10.5c0-5.8,0-11.5,0.1-17.3
			c0-0.3,0-0.7-0.3-0.9c0-18.3,0-36.5,0-54.8c0.3-0.3,0.2-0.6,0.2-1c0-6.2,0-12.5,0-18.7C450.4,266.8,450.4,266.2,450.4,265.6z"/>
		<path class="st3" d="M20.7,302.7c0.1,0,0.2,0,0.3,0c-0.1,0.8,0.3,1.6-0.3,2.3C20.7,304.3,20.7,303.5,20.7,302.7z"/>
		<path class="st3" d="M605.5,302.7c0.1,0,0.2,0,0.3,0c0,0.8,0,1.6,0,2.3C605.2,304.3,605.6,303.5,605.5,302.7z"/>
		<path class="st4" d="M450.4,207.9c0,5.6,0,11.1,0,16.7c-0.3,0.3-0.2,0.7-0.2,1.1c0,13.3,0,26.6,0,39.9c-0.1,0.6-0.2,1.1-0.2,1.7
			c-0.2,0.7-0.4,1.4-0.7,2.1c-3,7.3-11.7,10.6-18.6,6.9c-5-2.6-7.5-6.9-7.7-12.5c-0.1-3.7,0.4-7.4-0.3-11.1
			c-1.2-6.7-7.4-11.7-14.2-11.4c-6.5,0.3-12.6,6.2-12.9,12.7c-0.2,5.4,0,10.8,0,16.2c0,0.8,0,1.6-0.1,2.3c-0.2,4.8,0.6,9.6-0.7,14.4
			c-1.3,2.6-2.8,5-5.3,6.6c-3.8,2.4-7.7,3.5-12.1,1.7c-4-1.6-6.7-4.5-8.5-8.4c-0.5-1.8-0.7-3.6-0.7-5.4c0.1-2.9,0-5.9,0-8.8
			c0-0.7,0.2-1.5-0.2-2.1c0-6,0-11.9,0-17.9c0.6-3.7,0.1-7.3,0.1-11c-0.2,2.4-0.1,4.7-0.2,7.1c0,1,0.3,2-0.2,3
			c-0.1-0.4-0.2-0.7-0.4-1.1c-2.2-5.4-6.1-8.8-12-9.3c-7.7-0.7-14.4,5.7-14.6,13.5c-0.2,7.3-5.4,13.1-12.9,13.9
			c-5.9,0.6-12.8-3.9-14.3-11.1c-0.3-1.4-0.1-2.8-0.4-4.2c-1.3-7.4-6.9-12.1-14.4-12.1c-40.1,0-80.2,0-120.3,0c-0.7,0-1.4,0-2,0
			c0-17.7,0-35.4,0-53.1c0-0.6,0.2-1.3-0.2-1.8c0-12.5-0.2-25.1,0-37.6c0.2-9.3,8.6-17.1,17.9-17.1c79.5,0,158.9,0,238.4,0
			c10,0,17.2,8.5,17.7,16c0,19.7,0,39.4,0,59.1C450.2,207.1,450.1,207.6,450.4,207.9z"/>
		<path class="st5" d="M176.1,370.6c0-3.5,0-7,0-10.5c41.8,0,83.6,0,125.3,0c49.6,0,99.3,0,148.9,0c0,3.5,0,7,0,10.5
			c-0.5,0.7-0.2,1.6-0.4,2.4c-2,8.7-9.3,14.5-18.2,14.6c-21.7,0-43.4,0-65.1,0c-4.1,0-8.1,0.9-11.8,2.8c-6.9,3.5-10.8,9.4-12.9,16.7
			c-1.5,5-1.2,10-1.1,15.1c0,2.1-0.3,4.3,0.3,6.4c0.2,4.1,0.4,8.2,0.8,12.3c0.9,8.5,2.3,16.8,4.4,25.1c0.9,3.4,1.7,7,3.2,10.1
			c1.2,2.4,2.3,4.8,2.9,7.4c1.3,5.9,1.4,11.8,0.2,17.6c-0.1,0.4-0.1,0.8-0.1,1.2c-0.1,0.3-0.3,0.6-0.4,0.9
			c-2,7.4-5.9,13.7-11.6,18.9c-9.5,8.6-20.5,12.5-33.2,10.3c-16.3-2.8-26.9-12.5-32.4-28c-0.2-0.6-0.2-1.4-0.7-1.9
			c-0.8-4.4-1.2-8.9-0.9-13.3c0.2-3.6,0.7-7.2,2.4-10.3c5.1-9.7,6.4-20.3,8.2-30.9c0.9-5.6,1.1-11.3,1.7-16.9c0.1-1.2,0-2.4,0-3.6
			c0.3-5.8,0.8-11.7,0-17.5c-0.9-7-4.1-12.8-10-16.9c-5.3-3.6-11.2-5.3-17.6-5.4c-21.2-0.1-42.3,0-63.5,0c-7.1,0-13.9-4.5-16.7-11.1
			C176.8,374.6,176.4,372.6,176.1,370.6z"/>
		<path class="st6" d="M176.4,341.8c0-3.1,0-6.2,0-9.3c0-15,0-30,0-45c0-0.2,0-0.3,0-0.5c0.6,0,1.3,0,1.9,0c47.8,0,95.6,0,143.3,0
			c0.6,0,1.3,0,1.9-0.1c2.3,0,4.7,0,7,0c0.6,0,1.2,0.1,1.7,0.1c11.9,0,23.8,0,35.7,0c0,3.9,0,7.9,0.1,11.8c0.1,3.7,0.7,7.1,3,10.1
			c3.4,4.4,9.5,6.5,14.6,4.9c5.8-1.9,9.8-7.1,9.9-12.9c0-4.6,0-9.3,0-13.9c4,0,8-0.1,12-0.1c5.4,0,10.7,0,16.1-0.1
			c0.2,0.1,0.4,0.1,0.5,0.2c0,0.5,0.2,0.9,0.4,1.4c3.2,6.6,11.4,9.4,18,6.3c3.4-1.6,5.6-4.4,7.2-7.7c0.2,0,0.4,0,0.6,0
			c0,18.3,0,36.5,0,54.8c-0.6,0-1.3,0.1-1.9,0.1c-90,0-180,0-270,0C177.6,341.9,177,341.8,176.4,341.8z"/>
		<path class="st7" d="M176.4,341.8c0.6,0,1.3,0.1,1.9,0.1c90,0,180,0,270,0c0.6,0,1.3,0,1.9-0.1c0.3,0.2,0.3,0.6,0.3,0.9
			c0,5.8,0,11.5-0.1,17.3c-49.6,0-99.3,0-148.9,0c-41.8,0-83.6,0-125.3,0c0-5.8,0-11.5-0.1-17.3
			C176.1,342.4,176.1,342.1,176.4,341.8z"/>
		<path class="st8" d="M323.5,286.9c-0.6,0-1.3,0.1-1.9,0.1c-47.8,0-95.6,0-143.3,0c-0.6,0-1.3,0-1.9,0c-0.3-0.2-0.3-0.5-0.3-0.8
			c0-8.9,0-17.9,0-26.8c36.3,0,72.7,0,109,0c5.2,0,10.3-0.1,15.5,0.2c6.4,0.4,12.6,6.5,12.6,13c0,6.1,4.1,11.7,9.4,13.6
			C323,286.3,323.4,286.4,323.5,286.9z"/>
		<path class="st9" d="M323.5,286.9c-0.1-0.5-0.5-0.6-0.8-0.7c-5.4-1.8-9.5-7.5-9.4-13.6c0.1-6.4-6.2-12.5-12.6-13
			c-5.2-0.4-10.3-0.2-15.5-0.2c-36.3,0-72.7,0-109,0c0-6,0-12.1,0-18.1c0.1,0,0.2,0,0.2,0c0.7,0,1.4,0,2,0c40.1,0,80.2,0,120.3,0
			c7.5,0,13.1,4.7,14.4,12.1c0.2,1.4,0.1,2.8,0.4,4.2c1.6,7.2,8.4,11.7,14.3,11.1c7.5-0.8,12.7-6.6,12.9-13.9
			c0.2-7.7,6.9-14.1,14.6-13.5c5.9,0.5,9.8,3.9,12,9.3c0.1,0.4,0.2,0.7,0.4,1.1c0,0.3,0,0.7,0.3,0.9c0,6,0,11.9,0,17.9
			c-0.3-0.2-0.3-0.5-0.4-0.8c-1.7-5.6-7.3-10.3-13.6-10.2c-7.2,0.1-13.4,7.2-13.4,13.4c0,5.6-2.9,9.7-7.7,12.5
			c-0.8,0.5-1.9,0.4-2.4,1.4C328.2,286.9,325.8,286.9,323.5,286.9z"/>
		<path class="st10" d="M341.1,428.5c-0.6-2.1-0.3-4.3-0.3-6.4c0-5.1-0.3-10.1,1.1-15.1c2.1-7.3,6-13.2,12.9-16.7
			c3.7-1.9,7.7-2.8,11.8-2.8c21.7-0.1,43.4,0,65.1,0c8.9,0,16.2-5.8,18.2-14.6c0.2-0.8-0.1-1.7,0.4-2.4c0,5.9,0.3,11.8,0,17.7
			c-0.5,8.9-6.6,15.8-15.6,17.4c-0.9,0.1-1.8,0.1-2.6,0.1c-20.8,0-41.5,0-62.3,0c-4.8,0-9.6,0.5-14.1,2.5
			c-5.6,2.5-9.5,6.7-12.1,12.1C342.5,423,341.8,425.8,341.1,428.5z"/>
		<path class="st10" d="M176.1,370.6c0.3,2,0.7,4,1.5,5.9c2.8,6.5,9.5,11.1,16.7,11.1c21.2,0,42.3,0,63.5,0c6.4,0,12.3,1.7,17.6,5.4
			c6,4.1,9.1,9.9,10,16.9c0.8,5.8,0.2,11.7,0,17.5c-0.6-2-1-4.1-1.8-6.1c-3.8-8.4-10.6-12.7-19.3-14.6c-3.1-0.7-6.3-0.9-9.6-0.9
			c-20.1,0-40.3-0.1-60.4,0c-8.4,0.1-16.1-6.1-17.9-14.6c-0.2-1-0.4-2.1-0.4-3.2C176.1,382.2,176.1,376.4,176.1,370.6z"/>
		<path class="st10" d="M274.1,502.5c0.5,0.5,0.5,1.3,0.7,1.9c5.5,15.5,16.1,25.2,32.4,28c12.7,2.2,23.7-1.7,33.2-10.3
			c5.7-5.2,9.6-11.5,11.6-18.9c0.1-0.3,0.3-0.6,0.4-0.9c0.6,1.4,0.7,2.9,0.8,4.4c0.9,11.1-1.9,21.2-9.2,29.9
			c-6,7.1-13.4,11.8-22.5,13.8c-10.2,2.2-19.8,0.6-28.8-4.8c-6.8-4-12-9.6-15.5-16.6c-2.5-4.9-4-10.1-4.1-15.7
			c-0.1-3.3-0.2-6.6,0.6-9.9C273.8,502.9,273.9,502.7,274.1,502.5z"/>
		<path class="st9" d="M424.1,287.1c-0.2-0.1-0.4-0.1-0.5-0.2c-0.8-3.6-0.5-7.2-0.6-10.9c0-0.9,0-1.9,0-2.8c0-3.4-1.2-6.4-3.5-8.9
			c-7.1-7.9-19.5-5.4-23.2,4.6c-0.2,0.5-0.1,1.1-0.8,1.3c0-5.4-0.2-10.8,0-16.2c0.3-6.6,6.5-12.4,12.9-12.7
			c6.8-0.3,13,4.7,14.2,11.4c0.6,3.7,0.2,7.4,0.3,11.1c0.2,5.7,2.7,9.9,7.7,12.5c7,3.7,15.6,0.4,18.6-6.9c0.3-0.7,0.5-1.4,0.7-2.1
			c0.1,0,0.3,0,0.4,0c0,6.2,0,12.5,0,18.7c0,0.3,0.1,0.7-0.2,1c-0.2,0-0.4,0-0.6,0c-8.1,0-16.1,0-24.2,0
			C424.9,287,424.5,287.1,424.1,287.1z"/>
		<path class="st11" d="M450.4,207.9c-0.3-0.4-0.2-0.8-0.2-1.3c0-19.7,0-39.4,0-59.1c0.3,0.5,0.3,1,0.3,1.6c0,19.4,0,38.8,0,58.2
			C450.4,207.5,450.4,207.7,450.4,207.9z"/>
		<path class="st11" d="M176.4,241.3c-0.1,0-0.1,0.1-0.2,0c0-0.4-0.1-0.8-0.1-1.2c0-17.6,0-35.2,0-52.8c0-0.3,0-0.7,0-1
			c0.4,0.6,0.2,1.2,0.2,1.8C176.4,205.9,176.4,223.6,176.4,241.3z"/>
		<path class="st12" d="M176.3,287.5c0,15,0,30,0,45c-0.4-0.5-0.3-1-0.3-1.5c0-14,0-28,0-41.9C176.1,288.6,175.9,288,176.3,287.5z"
			/>
		<path class="st11" d="M450.2,265.6c0-13.3,0-26.6,0-39.9c0-0.4,0-0.8,0.2-1.1c0,8,0,15.9,0,23.9c0,5.7,0,11.4,0,17.1
			C450.3,265.6,450.3,265.6,450.2,265.6z"/>
		<path class="st13" d="M450.2,265.6c0.1,0,0.1,0,0.2,0c0,0.6,0,1.2,0,1.8c-0.1,0-0.3,0-0.4,0C450,266.7,450.1,266.2,450.2,265.6z"
			/>
		<path class="st8" d="M330.5,286.9c0.5-1,1.6-0.9,2.4-1.4c4.9-2.8,7.7-6.9,7.7-12.5c0-6.2,6.2-13.3,13.4-13.4
			c6.2-0.1,11.8,4.6,13.6,10.2c0.1,0.3,0.1,0.6,0.4,0.8c0.4,0.7,0.2,1.4,0.2,2.1c0,2.9,0.1,5.9,0,8.8c0,1.9,0.2,3.7,0.7,5.4
			c-0.3,0-0.6,0-0.9,0c-11.9,0-23.8,0-35.7,0C331.7,287,331.1,286.9,330.5,286.9z"/>
		<path class="st8" d="M395.5,270.2c0.6-0.2,0.6-0.8,0.8-1.3c3.7-10,16-12.5,23.2-4.6c2.2,2.5,3.5,5.5,3.5,8.9c0,0.9,0,1.9,0,2.8
			c0,3.6-0.3,7.3,0.6,10.9c-5.4,0-10.7,0-16.1,0.1c-4,0-8,0-12,0.1c-0.2,0-0.5-0.1-0.7-0.1c1.2-4.7,0.5-9.6,0.7-14.4
			C395.5,271.8,395.5,271,395.5,270.2z"/>
		<path class="st14" d="M394.8,287c0.2,0,0.5,0.1,0.7,0.1c0,4.6,0,9.3,0,13.9c0,5.8-4,11-9.9,12.9c-5.1,1.7-11.1-0.4-14.6-4.9
			c-2.3-3-3-6.5-3-10.1c-0.1-3.9,0-7.9-0.1-11.8c0.3,0,0.6,0,0.9,0c1.8,3.9,4.5,6.7,8.5,8.4c4.4,1.8,8.4,0.7,12.1-1.7
			C392,292,393.5,289.6,394.8,287z"/>
		<path class="st11" d="M368,252.7c-0.3-0.2-0.3-0.6-0.3-0.9c0.5-1,0.2-2,0.2-3c0-2.4,0-4.7,0.2-7.1
			C368.1,245.3,368.6,249,368,252.7z"/>
		<path class="st14" d="M424.1,287.1c0.4,0,0.9-0.1,1.3-0.1c8.1,0,16.1,0,24.2,0c-1.5,3.4-3.8,6.1-7.2,7.7c-6.6,3.2-14.8,0.3-18-6.3
			C424.2,288,424,287.6,424.1,287.1z"/>
	</g>
</g>
<g id="Layer_2">
	<g>
		<path class="st15" d="M313.8,22.7c1,0,2,0,2.9,0c1.2,2.4,3.4,1.4,5.2,1.4c11.5,0,22.9,1,34.3,2.8c104.6,16.9,179.8,73.4,226,168.5
			c13.9,28.7,22.1,59.3,24.7,91.3c-14.3-13.9-28.5-27.9-42.1-42.5c-12.9-13.9-25.9-27.8-40.6-39.9c-31-6.7-61.7-8.6-91.3,6
			c-3.2-3-6.2-6.2-9.6-8.9c-49.1-38.5-104.6-49.9-164.9-37.2c-48.3,10.2-87.2,35.6-114.2,77.8c-4.5,7.1-3.7,14.4-2.8,21.9
			c0.5,4,3.4,5.4,7.5,5.2c6.6-0.3,13.2-0.3,19.8,0.2c20.8,1.4,37.4,16.2,38.6,34.4c1,13.7-5.5,24.1-15,33.2
			c-5.7,6.1-13.4,8.5-20.7,11.7c-5.5,0.2-10.5,1.6-14.4,5.7c-1.1,1-2,2.2-3.2,2.9c-12.5,6.6-25.2,13-37.7,19.5
			c-9.7,5.1-12.7,13.7-8.3,23.1c1,3.4,4.1,5,6.5,7.2c0.7,0.4,1.4,0.8,2.1,1.3c0,0,0.4-0.1,0.4-0.1l0.4,0.1c0,2.8,2,4.3,3.7,6.1
			c19.9,20.1,39.7,40.3,59.4,60.6c43,44.3,86.7,87.9,130,131.8c1.2,1.2,2.2,2.6,3.4,3.8c-1.5,0.1-2.9,0.3-4.4,0.2
			c-77.8-1.8-145.4-29.2-199.9-84.4C30,445.9,4.5,348.9,32.6,239.4C62.5,123,167.2,36.1,286.7,25.2C295.7,24.4,305,25.9,313.8,22.7z
			"/>
		<path class="st16" d="M606.9,286.7c7.9,78.3-11.8,149.1-60.1,211.1c-49.5,63.5-115.2,100.1-194.9,111c-12.5,1.7-25.2,2.7-37.9,1.7
			c-1.1-1.3-2.2-2.6-3.4-3.8c-43.4-43.9-87-87.5-130-131.8c-19.7-20.3-39.5-40.5-59.4-60.6c-1.7-1.7-3.7-3.3-3.7-6.1
			c5.9,0.6,11.4-0.6,16.8-3.1c5-2.3,10.3-4.1,15.4-6.1c3.4,8.3,9.5,14.6,15.7,20.9c68.5,69.5,185.5,74.9,260.3,12.1
			c51.1-43,68.8-109,44.9-167.8c17-11.7,27.3-28.8,37.1-46.3l-0.1,0c0.5-0.6,1-1.1,1.4-1.7c4.6-4.6,9.3-9.2,15.3-12
			c14.7,12.1,27.7,26,40.6,39.9C578.4,258.8,592.6,272.8,606.9,286.7z"/>
		<path class="st17" d="M192.3,336.8c9.5-9.1,16-19.5,15-33.2c-1.3-18.2-17.8-33-38.6-34.4c-6.6-0.4-13.2-0.4-19.8-0.2
			c-4.1,0.2-7-1.2-7.5-5.2c-0.9-7.5-1.7-14.8,2.8-21.9c27.1-42.2,65.9-67.6,114.2-77.8c60.3-12.7,115.9-1.3,164.9,37.2
			c3.4,2.7,6.4,5.9,9.6,8.9c-7.3,5.4-14,11.4-16.7,20.5c-7.9,1.2-13.9,7-21.5,8.9c-1-15.5-9.3-24.6-24.4-26.9
			c-11.8-1.8-23.6,5.4-27.6,17.6c-3.8,11.4-0.7,21.4,7.9,29.8c-8.3,4.1-16.7,8.3-25,12.4c-41.2,20.4-82.5,40.8-123.7,61.2
			C198.8,335.4,195.9,337,192.3,336.8z M257.9,218.1c-0.1,15.2,11.6,27.2,26.6,27c14.7-0.1,26.3-11.9,26.4-26.7
			c0.1-14.5-12-26.7-26.4-26.8C269.9,191.5,258,203.4,257.9,218.1z"/>
		<path class="st18" d="M192.3,336.8c3.6,0.3,6.5-1.4,9.6-2.9c41.2-20.4,82.4-40.8,123.7-61.2c3.6,7.1,7.2,14.2,10.7,21.4
			c-0.1,0.4-0.1,0.8-0.1,1.2c-2.2,0.9-4.5,1.8-6.7,2.8c-27.1,12.4-54.1,24.7-81.2,37.1c-46.8,21.5-93.5,43-140.3,64.5
			c-4.4-9.4-1.4-18,8.3-23.1c12.5-6.6,25.1-13,37.7-19.5c1.2-0.6,2.2-1.9,3.2-2.9c5.6,0,10.1-2.7,14.4-5.7
			C178.8,345.2,186.6,342.9,192.3,336.8z"/>
		<path class="st19" d="M107.9,399.7c46.8-21.5,93.5-43,140.3-64.5c27-12.4,54.1-24.8,81.2-37.1c2.2-1,4.5-1.9,6.7-2.8
			c3.8,6,6.5,12.5,9.2,19.1c-1.1,0.9-2.1,2.1-3.4,2.6c-39,16.5-77.9,32.9-116.9,49.3c-8.9,4.6-18.9,6.9-27.1,12.9
			c-16.9,4.6-32.4,12.7-48.4,19.7c-5.1,2-10.4,3.9-15.4,6.1c-5.4,2.4-10.9,3.6-16.8,3.1c0,0-0.4-0.1-0.4-0.1s-0.4,0.1-0.4,0.1
			c-0.7-0.4-1.4-0.8-2.1-1.3C112,404.7,108.9,403.1,107.9,399.7z"/>
		<path class="st20" d="M416.2,230.8c2.8-9.2,9.4-15.1,16.7-20.5c29.6-14.6,60.3-12.6,91.3-6c-6,2.8-10.7,7.4-15.3,12
			c-0.5,0.6-1,1.1-1.4,1.7c0,0,0.1,0,0.1,0c-7.6,0.3-13.8,4.6-20.4,7.4c-22.4,9.2-45.3,12.9-69.2,7.1
			C417.4,231.8,416.8,231.3,416.2,230.8z"/>
		<path class="st17" d="M171.5,348.4c-4.4,3.1-8.9,5.8-14.4,5.7C161,350,166,348.6,171.5,348.4z"/>
		<path class="st16" d="M114.4,406.9c0.7,0.4,1.4,0.8,2.1,1.3C115.8,407.7,115.1,407.3,114.4,406.9z"/>
		<path class="st17" d="M225,366.3c39-16.4,78-32.9,116.9-49.3c1.3-0.5,2.3-1.7,3.4-2.6c7.2-0.8,12.8-5.5,19.4-7.9
			c6.8-2.5,12.4-7.7,20.1-7.9c-0.4,1.9-0.7,3.8-1.1,5.7c-3.1,13.9,4.6,27.4,18.1,31.5c13.2,4,27.1-2.6,32.4-15.4
			c6.3-15.4-1.3-29.7-19.7-36.7c6.5-4.8,14.9-6.2,21.3-11.4c12.2-0.1,23.8-2.9,34.8-8.2c23.9,58.7,6.2,124.8-44.9,167.8
			c-74.8,62.8-191.8,57.4-260.3-12.1c-6.1-6.2-12.2-12.6-15.7-20.9c15.9-7.1,31.4-15.1,48.4-19.7c-0.5,1.1-1,2.2-1.5,3.3
			c-6,14.6,0.2,30.4,14.1,35.9c13.7,5.5,29-1,34.6-14.6c5.8-14.2-1-29.3-15.8-35.2C227.9,368.1,226.5,367.1,225,366.3z M301.1,442.3
			c14.7,0,26.5-11.8,26.6-26.5c0.1-14.6-11.8-26.5-26.4-26.6c-15-0.1-27.2,12.1-27,26.8C274.5,430.6,286.4,442.3,301.1,442.3z
			 M383.1,417.2c14.5-0.2,26.4-12.4,26-27c-0.4-14.9-12.1-26.1-27-26c-15,0.1-26.2,11.5-26.2,26.6
			C356,406.1,367.6,417.3,383.1,417.2z"/>
		<path class="st21" d="M470.5,264.2c-11,5.3-22.5,8.1-34.8,8.2c-3.1-6.5-6.2-13-9.2-19.5c-2.9-6.8-5.7-13.6-8.6-20.5
			c23.9,5.8,46.8,2.2,69.2-7.1c6.7-2.8,12.9-7,20.4-7.4C497.8,235.4,487.5,252.4,470.5,264.2z"/>
		<path class="st21" d="M507.5,217.9c0.5-0.6,1-1.1,1.4-1.7C508.5,216.8,508,217.4,507.5,217.9z"/>
		<path class="st22" d="M417.9,232.4c2.9,6.8,5.7,13.6,8.6,20.5c-24.7,11.6-49.3,23.4-74.1,34.7c-5.2,2.4-10.1,5.9-16.2,6.5
			c-3.6-7.1-7.2-14.2-10.7-21.4c8.3-4.1,16.7-8.3,25-12.4c15.2-5.9,29.7-13,44.1-20.6c7.6-1.9,13.7-7.7,21.5-8.9
			C416.8,231.3,417.4,231.8,417.9,232.4z"/>
		<path class="st23" d="M257.9,218.1c0.1-14.7,12-26.6,26.6-26.5c14.4,0.1,26.5,12.3,26.4,26.8c-0.1,14.8-11.7,26.6-26.4,26.7
			C269.5,245.3,257.7,233.4,257.9,218.1z"/>
		<path class="st24" d="M394.7,239.7c-14.4,7.6-29,14.7-44.1,20.6c-8.5-8.4-11.6-18.4-7.9-29.8c4-12.2,15.8-19.4,27.6-17.6
			C385.3,215,393.6,224.2,394.7,239.7z"/>
		<path class="st25" d="M336.3,294c6-0.6,10.9-4.1,16.2-6.5c24.8-11.3,49.4-23.1,74.1-34.7c3.1,6.5,6.1,13,9.2,19.5
			c-6.4,5.2-14.7,6.5-21.3,11.4c-9.9,3.6-19.2,8.2-28.5,13.2c-0.6,0.6-1.1,1.2-1.7,1.7c0,0,0.4,0,0.4,0c-7.6,0.2-13.3,5.4-20.1,7.9
			c-6.5,2.4-12.2,7-19.4,7.9c-2.7-6.5-5.4-13.1-9.2-19.1C336.2,294.8,336.2,294.4,336.3,294z"/>
		<path class="st26" d="M225,366.3c1.5,0.8,2.9,1.8,4.4,2.4c14.8,5.9,21.6,21,15.8,35.2c-5.6,13.6-20.9,20.1-34.6,14.6
			c-14-5.5-20.2-21.4-14.1-35.9c0.5-1.1,1-2.2,1.5-3.3C206.1,373.2,216.1,370.9,225,366.3z"/>
		<path class="st27" d="M301.1,442.3c-14.7,0-26.6-11.6-26.9-26.3c-0.2-14.7,12-26.9,27-26.8c14.6,0.1,26.5,12,26.4,26.6
			C327.6,430.5,315.8,442.2,301.1,442.3z"/>
		<path class="st28" d="M383.1,417.2c-15.5,0.2-27.1-11.1-27.1-26.4c0-15.1,11.2-26.5,26.2-26.6c14.9-0.1,26.6,11.2,27,26
			C409.5,404.7,397.7,417,383.1,417.2z"/>
		<path class="st29" d="M386,296.9c9.2-4.9,18.6-9.6,28.5-13.2c18.3,6.9,26,21.2,19.7,36.7c-5.3,12.8-19.2,19.5-32.4,15.4
			c-13.5-4.1-21.2-17.7-18.1-31.5c0.4-1.9,0.7-3.8,1.1-5.7c0,0-0.4,0-0.4,0C385.9,299,385.7,297.7,386,296.9z"/>
		<path class="st17" d="M386,296.9c-0.3,0.8-0.1,2.1-1.7,1.7C384.9,298.1,385.4,297.5,386,296.9z"/>
	</g>
</g>
<g id="Layer_3" class="st0">
	<g class="st1">
		<path class="st30" d="M90.5,507.4c-5.8-4.8-9.7-11.1-14-17.1c-19.2-26.2-33.4-54.9-43.1-85.9c-4.9-15.6-8.3-31.6-10.5-47.8
			c-2.2-16.4-3.5-32.8-2.7-49.3c1.1-24.6,4.8-48.8,11.7-72.6c6.1-20.8,14.3-40.7,24.6-59.7c8.5-15.8,18.5-30.6,29.9-44.4
			c7.1-8.7,14.6-17.1,22.6-24.9c17.5-17,36.8-31.5,57.9-43.8c26.1-15.2,53.9-26,83.3-32.7c11.7-2.7,23.6-4.3,35.6-5.7
			c12.1-1.3,24.1-1.6,36.2-1.3c23.1,0.6,45.8,3.9,68,9.9c20.8,5.6,40.7,13.3,59.9,23.2c4.7,2.4,9.3,5.1,13.9,7.7
			c1,0.5,1.8,1.2,2.2,2.4c-1.3,0.7-2.6,1.4-3.9,2.1c-34.7,16.9-66,38.5-92.5,66.8c-15.3,16.2-28.5,34-39.4,53.5
			c-1.6-0.3-3.2-0.7-4.8-1c-0.4-0.2-0.7-0.4-1.1-0.5c-0.4-0.1-0.7-0.1-1.1-0.2c-13.1-5.2-25.7-4.6-37.9,2.8
			c-6.8,4.1-12.7,9.3-18.3,14.9c-17,16.9-33.9,33.8-50.8,50.8c-0.7,0.7-1.4,1.4-2,2.2c-1.5,2-1.7,3.8,1.1,4.9c1,0.3,2.1,0.8,3.1,1
			c6.6,1.2,13.2,1.2,19.9,1.3c14.3,0.2,28.6-0.6,42.8,1.7c6.4,1,13,1.9,17.7,7.3c-2.7,13.2-4.3,26.6-4.9,40.1
			c-1.6,0.5-3.6,0.1-4.5,2c-2.5,5.3-5.6,10.3-7.6,15.9c-0.6,0.3-1.4,0.6-1.9,1c-13.4,12.4-26.8,24.7-40.1,37.1
			c-9.9,9.3-19.8,18.5-29.8,27.6c-13.8,12.6-27.5,25.4-41.2,38.1c-10,9.3-20.1,18.5-30.1,27.9c-12.3,11.5-24.6,23.1-36.9,34.6
			C98,500.7,94.2,504,90.5,507.4z"/>
		<path class="st30" d="M570.3,172.6c13.7,24.2,23.6,49.9,30,76.9c3.2,13.4,5.4,26.9,6.6,40.7c1,11.2,1.8,22.4,1.4,33.6
			c-0.9,24.8-4.3,49.2-11.1,73c-5.4,19-12.5,37.4-21.5,55c-9.8,19.1-21.6,37-35.3,53.6c-21.5,26-46.8,47.6-75.6,64.8
			c-27.7,16.6-57.4,28.4-89,35.1c-11.9,2.5-23.9,4.4-36,5.3c-10.1,0.8-20.1,1.8-30.2,1.3c-15.8-0.7-31.6-1.9-47.2-4.8
			c-19.7-3.7-38.8-9.1-57.4-16.5c-25.1-10.1-48.4-23.3-69.8-39.8c-2.1-1.7-4.3-3.3-6.4-5c-1.8-1.4-2.1-2.7-0.3-4.5
			c4.6-4.5,8.9-9.2,13.3-13.9c11.2-12.1,22.9-23.8,34.2-35.9c12.3-13.2,24.7-26.2,37-39.3c12.6-13.4,25.2-26.8,37.9-40.1
			c12.5-13,24.9-26,37-39.3c5.6-6.2,11.6-12,17.3-18.2c1.2,1,2.3,0.8,3.7,0.1c2.5-1.4,5-2.5,7.5-3.8c3.3-1.7,7.3-2.7,7.2-7.6
			c10.2-0.1,20.3-1.2,30.4-2.9c1.1-0.1,2.1-0.3,3.2-0.4c3.8-0.3,7.5-2.3,11.4-0.9c2.7,3.2,3.2,7.2,3.3,11.1
			c0.1,17.3,0.1,34.6,0.2,51.8c-0.2,6-0.5,12.1,0.8,18.1c1.2,5.5,4.4,6.5,8.3,2.6c19.5-19.7,39.6-38.7,58.3-59.1
			c7.1-7.7,12.8-16.4,14.4-27.1c1.4-9.2-0.9-17.9-4.1-26.4c-0.8-2.2-0.4-3.2,1.6-4.3c39.3-22.8,70.8-53.8,95.7-91.6
			C555.6,200.8,563,186.7,570.3,172.6z"/>
		<path class="st31" d="M353.8,340.3c-10.1,1.7-20.2,2.8-30.4,2.9c-0.1-1.8,0.4-3.6-1.2-5.2c-8-7.8-16-15.7-24-23.6
			c-1-2.1-2.9-1.3-4.5-1.5c0.6-13.5,2.1-26.8,4.9-40.1c2.2,0.3,4.3-0.2,5.6-2c1.9-2.7,3.8-5.4,5.1-8.5c5.6-12.6,9.7-25.8,13.4-39
			c3-10.7,6-21.5,8.2-32.4c0.3-1.3,0.6-2.3-0.8-3.1c10.8-19.5,24.1-37.2,39.4-53.5c26.5-28.2,57.8-49.9,92.5-66.8
			c1.3-0.6,2.6-1.4,3.9-2.1c12.9-5.4,25.6-11,38.8-15.4c7.7-2.6,15.3-5.4,23.3-7.1c0.7,0.2,1.4,0.4,2.1,0.7
			c19.9,9.9,37.5,22.6,50.7,40.9c0.2,0.5,0.5,1,0.7,1.5c-0.5,0.7-1,1.4-1.4,2.1c-8.5,15.7-17.5,31.2-27.1,46.2
			c-14.5,22.6-30,44.4-47.2,65.1c-11.3,13.7-23.3,26.7-35.4,39.6c-4.6,4.9-9.8,9.4-14.7,14.1c-10.2,10-21.1,19.2-32.2,28.2
			c-14.3,11.5-29.2,22.2-44.9,31.7c-12.9,7.8-25.9,15.3-39.8,21.2c-3.7,1.6-7.3,3.3-11,4.9c7,0.5,13.8,0.5,20.6,0.5
			C350.2,339.8,352.1,339.1,353.8,340.3z M454,142.9c-0.9,19.9,16.9,37.4,36,37.4c22,0,37.2-16.2,37.2-36.3
			c0-21.4-15.7-37.3-36.8-37.6C470.2,106.1,453.9,121.6,454,142.9z"/>
		<path class="st32" d="M353.8,340.3c-1.7-1.3-3.6-0.6-5.4-0.6c-6.8-0.1-13.6,0-20.6-0.5c3.7-1.6,7.3-3.4,11-4.9
			c13.9-5.9,26.9-13.4,39.8-21.2c15.7-9.5,30.6-20.2,44.9-31.7c11.1-9,22-18.2,32.2-28.2c4.9-4.7,10-9.1,14.7-14.1
			c12.1-12.9,24.1-26,35.4-39.6c17.2-20.7,32.6-42.6,47.2-65.1c9.7-15,18.6-30.5,27.1-46.2c0.4-0.7,0.9-1.4,1.4-2.1
			c2,2.3,3.5,5,5.3,7.5c2.8,3.8,4,8.7,7.8,11.8c-5.8,21.3-13.3,42-22.4,62.2c-0.8,1.7-1.4,3.4-2.1,5.1
			c-7.3,14.2-14.7,28.2-23.4,41.6c-24.9,37.9-56.4,68.8-95.7,91.6c-2,1.2-2.4,2.1-1.6,4.3c3.1,8.5,5.4,17.2,4.1,26.4
			c-1.6,10.7-7.3,19.4-14.4,27.1c-18.8,20.4-38.8,39.4-58.3,59.1c-3.9,4-7.1,2.9-8.3-2.6c-1.3-6-0.9-12-0.8-18.1
			c1.2,0.2,2.1-0.4,2.9-1.2c12.7-11.7,25.9-22.8,37.7-35.5c7.7-8.3,15.1-16.8,17.3-28.7c1.4-7.3,3.7-14.4,5.8-22.5
			c-22.3,10.3-44.3,19-67.2,25c-3.9-1.4-7.6,0.6-11.4,0.9C355.9,340,354.9,340.2,353.8,340.3z"/>
		<path class="st33" d="M580.8,84.5c-13.1-18.3-30.8-31-50.7-40.9c-0.6-0.3-1.4-0.5-2.1-0.7c10.8-3.8,22-6.1,33.1-8.5
			c15.4-3.4,30.9-6.1,46.5-8c0.7-0.1,1.4-0.6,2,0.2c-0.1,0.4-0.1,0.8-0.2,1.1c-7.6,16.8-15.3,33.7-24,50
			C584.3,80.2,583.7,83.2,580.8,84.5z"/>
		<path class="st34" d="M90.5,507.4c3.7-3.4,7.5-6.7,11.2-10.2c12.3-11.5,24.6-23.1,36.9-34.6c10-9.3,20-18.6,30.1-27.9
			c13.7-12.7,27.3-25.6,41.2-38.1c10-9.1,19.9-18.3,29.8-27.6c13.3-12.5,26.7-24.8,40.1-37.1c0.5-0.5,1.3-0.7,1.9-1
			c0.8,0.7,1.6,1.5,2.4,2.2c0.8,0.9,1.5,1.9,2.3,2.8c-7.4,6.8-14.8,13.7-22.2,20.5c-3.8,3.5-7.4,7.2-11.3,10.6
			c-9.1,8.1-17.8,16.7-26.7,25c-13.8,12.9-27.6,25.7-41.4,38.5c-9.8,9.1-19.7,18.3-29.6,27.3c-14,12.8-28,25.6-41.7,38.7
			c-5.1,4.9-10.5,9.3-15.5,14.2c-2.2,2.1-3.5,2.6-5.2-0.1C92,509.6,90.5,508.9,90.5,507.4z"/>
		<path class="st35" d="M286.4,335.8c-0.8-0.9-1.5-1.9-2.3-2.8c0.8-4.8,4.2-8.6,5.7-13.1c1.5-4.1,4.3-5.6,8.4-5.5
			c8,7.9,15.9,15.8,24,23.6c1.6,1.6,1.1,3.4,1.2,5.2c0.1,4.9-3.9,5.9-7.2,7.6c-2.5,1.3-5.1,2.4-7.5,3.8c-1.3,0.7-2.5,0.9-3.7-0.1
			C299,348,292.8,341.8,286.4,335.8z"/>
		<path class="st36" d="M580.8,84.5c2.9-1.3,3.5-4.4,4.7-6.7c8.7-16.4,16.3-33.2,24-50c0.1-0.3,0.2-0.7,0.2-1.1
			c0.7,0.3,0.6,1,0.6,1.6c-3.6,26-8.3,51.7-15.5,77c-3.8-3.1-5-8-7.8-11.8c-1.8-2.4-3.3-5.2-5.3-7.5C581.3,85.5,581.1,85,580.8,84.5
			z"/>
		<path class="st37" d="M330.2,187.8c1.3,0.8,1,1.8,0.8,3.1c-2.2,10.9-5.2,21.7-8.2,32.4c-3.7,13.3-7.8,26.4-13.4,39
			c-1.4,3.1-3.2,5.8-5.1,8.5c-1.3,1.9-3.4,2.3-5.6,2c-4.7-5.4-11.3-6.3-17.7-7.3c-14.2-2.3-28.5-1.6-42.8-1.7
			c-6.6-0.1-13.3-0.1-19.9-1.3c-1.1-0.2-2.1-0.7-3.1-1c-0.1-2.5,1.6-4,3.2-5.6c16.7-16.7,33.5-33.5,50.2-50.3c4.1-4.1,8.4-8,13-11.4
			c9.3-6.8,19.2-11.6,31.4-9.8c3.4,0.5,6.7,1.6,10.1,1.5c0.4,0.1,0.7,0.1,1.1,0.2c0.4,0.2,0.7,0.4,1.1,0.5
			C326.9,187.1,328.5,187.5,330.2,187.8z"/>
		<path class="st38" d="M323.1,186.1c-3.5,0-6.8-1-10.1-1.5c-12.1-1.8-22.1,3-31.4,9.8c-4.7,3.4-8.9,7.3-13,11.4
			c-16.7,16.8-33.5,33.5-50.2,50.3c-1.6,1.6-3.3,3.1-3.2,5.6c-2.8-1.1-2.6-2.9-1.1-4.9c0.6-0.8,1.3-1.5,2-2.2
			c16.9-16.9,33.9-33.9,50.8-50.8c5.6-5.6,11.6-10.8,18.3-14.9C297.4,181.4,310,180.9,323.1,186.1z"/>
		<path class="st39" d="M298.2,314.5c-4.1-0.1-6.9,1.4-8.4,5.5c-1.6,4.5-4.9,8.2-5.7,13.1c-0.8-0.7-1.6-1.5-2.4-2.2
			c1.9-5.6,5.1-10.6,7.6-15.9c0.9-1.9,2.9-1.5,4.5-2C295.3,313.1,297.2,312.4,298.2,314.5z"/>
		<path class="st38" d="M325.3,186.8c-0.4-0.2-0.7-0.4-1.1-0.5C324.6,186.4,324.9,186.6,325.3,186.8z"/>
		<path class="st31" d="M368.4,339c22.9-6,44.9-14.7,67.2-25c-2.1,8.1-4.5,15.2-5.8,22.5c-2.2,11.8-9.6,20.3-17.3,28.7
			c-11.7,12.7-25,23.8-37.7,35.5c-0.9,0.8-1.7,1.4-2.9,1.2c-0.1-17.3-0.1-34.6-0.2-51.8C371.6,346.2,371.1,342.3,368.4,339z"/>
		<path class="st40" d="M454,142.9c0-21.3,16.2-36.8,36.4-36.5c21,0.3,36.8,16.1,36.8,37.6c0,20.2-15.1,36.3-37.2,36.3
			C470.9,180.3,453.1,162.7,454,142.9z M490.4,175.8c17.9,0.1,32.3-14.2,32.4-32.2c0.1-17.6-15-32.8-32.5-32.8
			c-17.8,0-31.9,14.1-32,32C458.2,160.7,472.9,175.7,490.4,175.8z"/>
		<path class="st41" d="M490.4,175.8c-17.6-0.1-32.3-15.1-32.2-32.9c0.1-17.9,14.2-32,32-32c17.5,0,32.6,15.2,32.5,32.8
			C522.7,161.6,508.4,175.9,490.4,175.8z"/>
	</g>
</g>
<g id="Layer_4" class="st0">
	<g class="st1">
		<path class="st42" d="M610,295.7c0,10.3,0,20.6,0,31c-1.3-1.1-2.7-2.2-3.9-3.4c-43.3-43.3-86.6-86.6-129.9-129.9
			c-16.5-16.4-33-32.8-49.6-49.1c-0.9-1-2-0.9-3.2-0.9c-11.3,0-22.5,0.1-33.8,0.2c-10.5-0.1-21,0-31.5-0.3c-4-0.1-5.2,1.1-5.2,5.2
			c0.2,12.8-0.1,25.6-0.1,38.4c-2.6-2.5-5.2-5-7.8-7.5c-6.5-5.8-11.6-13.1-19-17.9c-1.8-2.8-4.8-1.8-7.2-2c-2.8-0.3-4.5-1.2-5.3-4
			c-2.2-7.6-7.6-11.3-15.4-11.9c-4.4-0.5-7.8,1.4-10.8,4.2c-4.1,3.8-5.3,8.7-5.3,14c0,8.7,0,17.3,0,27.6
			c-13.8-13.6-26.3-25.9-38.8-38.2c-0.3-0.3-0.6-0.6-1-0.9c-4.8-5-10.9-6.6-17.6-6.8c-6.7-0.3-12.4,2.2-17.3,6.6
			c-2,10.1-0.6,20.2-0.8,30.4c0,2.8,0,5.6,0,8.3c0,0.2-0.1,0.4-0.1,0.6c0,81-0.1,161.9-0.1,242.9c0,1.9-0.1,3.9,1.5,5.3
			c2.5,5.5,5.1,10.9,7.6,16.4c2.3,6.1,4.9,12,8.7,17.3c0.2,0.4,0.4,0.7,0.6,1.1c1.3,1.6,2.6,3.3,4.1,4.8
			c28.4,28.5,57,56.9,85.4,85.5c14.9,15,29.8,30.1,44.7,45.2c-1.3,0.3-2.6,0.8-3.9,1c-20,2.3-39.9,3.2-60,1.6
			c-70.1-5.5-130.8-32.3-181.5-80.7c-107-102.2-120-266-35.8-382.6C124.4,82.2,187.5,42.7,266.1,28.3c8.7-1.6,17.7-1.5,26.3-4.3
			c15.3,0,30.6,0,45.9,0c0.7,1.2,2,1,3.1,1.1c54.5,4.7,104.2,22.8,148.1,55.4c63,46.7,101.8,108.9,116.1,186.1
			C607.3,276.3,608.5,286,610,295.7z"/>
		<path class="st43" d="M326,161.4c7.4,4.8,12.6,12,19,17.9c2.7,2.4,5.2,5,7.8,7.5c0.1,37.4,0.2,74.9,0.2,112.3
			c0,24.4-0.2,48.7,0.1,73.1c0.2,18.7,0.3,37.4,0.3,56c0.1,19.5,0.1,39.1-0.4,58.6c-0.1,2.8-0.2,5.2,4,5.1
			c10.9-0.3,21.7-0.2,32.6-0.3c10.7,0.1,21.3,0,32,0.3c3.9,0.1,4.8-1.4,4.8-5c-0.2-16-0.1-32-0.2-48c0-1.6,0-3.1,0-4.7
			c0-4.5,0-9.1,0-13.6c0-1.5,0-3,0-4.6c0-4.6,0-9.2,0-13.7c0-1.5,0-3.1,0-4.6c0-4.6,0-9.2,0-13.8c0-1.5,0-3,0-4.5
			c0-4.6,0-9.2,0-13.8c0-1.5,0-3,0-4.5c0-4.6,0-9.2,0-13.8c0-1.5,0-3,0-4.5c0-4.6,0-9.2,0-13.7c0-1.5,0-3.1,0-4.6
			c0-4.7,0-9.3,0.1-14c0-1.6,0-3.2,0-4.9c0-4.5,0-9-0.1-13.5c0-1.6,0-3.2,0-4.8c0-4.4,0-8.8-0.1-13.2c0-1.5,0-3,0-4.5
			c0-4.6,0-9.2,0-13.8c0-1.5,0-3,0-4.5c0-4.6,0-9.2,0-13.8c0-1.5,0-3,0-4.6c0-4.6,0-9.2,0-13.8c0-1.5,0-3.1,0-4.6
			c0-4.6,0-9.2,0-13.8c0-1.5,0-3,0-4.6c0-4.6,0-9.2,0-13.7c0-1.5,0-3,0-4.5c0.1-11.1,0.2-22.3,0.3-33.4
			c16.5,16.4,33.1,32.7,49.6,49.1c43.3,43.3,86.6,86.6,129.9,129.9c1.2,1.2,2.6,2.2,3.9,3.4c0,5,0,9.9,0,14.9
			c-1.1,0.5-1.1,1.4-1.1,2.4c-0.8,13.4-2.8,26.6-6.1,39.5c-27.5,106.1-93,177.5-196.6,213.7c-15.3,5.3-31,9.4-47.2,10.5
			c-14.9-15.1-29.7-30.2-44.7-45.2c-28.4-28.5-56.9-57-85.4-85.5c-1.5-1.5-2.7-3.2-4.1-4.8c3.3-5.7,7.2-11.1,8.3-17.9
			c4.2-5.7,7-12.2,9.7-18.7c0.1-2.7,0.4-5.3,0.4-8c0-25.4,0-50.8,0-76.1c0-54.2-0.1-108.4-0.2-162.6c0-2.9,0-5.9,0-8.8
			c0.1-9.7,0.2-19.4,0.3-29.1c12.5,12.3,24.9,24.6,38.8,38.2c0-10.3,0-19,0-27.6c0-5.4,1.2-10.2,5.3-14c3-2.8,6.4-4.8,10.8-4.2
			c-0.1,2.5-0.2,5-0.2,7.4c0,90.7,0,181.4,0,272.2c0,4.2-0.2,8.4-0.4,12.6c-1.9,0.1-3.8,0.2-5.7,0.2c-6,0.1-6.9,1.1-5.8,7.2
			c0.8,4.4,1.8,8.9,2.8,13.3c1,4.6,3.5,7.5,8.7,6.9c0.3,2.6,0.5,5.1,0.8,8.4c2.8-2.3,4.8-4.4,4.5-7.1c-0.2-2.4-3.2-1.3-4.8-1.9
			c0-8.8,0-17.6-0.1-26.4c2.1-0.1,4.2-0.6,6.3-0.4c4.6,0.4,6.3-1.4,6.4-6.2c1.4-55.8-2.2-111.6,2.1-167.4
			c2.3-29.2,0.4-58.8,0.4-88.2c0-1.9,0-3.8,0.1-5.7c0.1-2.4,1.5-3.3,3.8-3.3c2.2,0,3.7,0.8,3.8,3.2c0.1,1.7,0.1,3.4,0.1,5.2
			c0,26.7,0,53.5,0,80.2c0,1.9-0.9,4.9,2.2,5c3.1,0,2.3-3,2.3-4.9c0.1-16,0-32.1,0.1-48.1C325.7,190.8,325.9,176.1,326,161.4z"/>
		<path class="st44" d="M389.7,491.5c-10.9,0.1-21.8,0-32.6,0.3c-4.2,0.1-4-2.2-4-5.1c0.5-19.5,0.4-39.1,0.4-58.6
			c0-18.7-0.1-37.3-0.3-56c-0.2-24.4,0-48.7-0.1-73.1c0-37.4-0.1-74.9-0.2-112.3c0.1-12.8,0.3-25.6,0.1-38.4c-0.1-4,1.1-5.3,5.2-5.2
			c10.5,0.3,21,0.2,31.5,0.3c0,103.8,0,207.7,0,311.5c-4.9,1.1-8.4,3.6-8.3,9.1c0.1,5.3,3.5,7.6,8.3,8.4
			C389.7,478.8,389.7,485.2,389.7,491.5z"/>
		<path class="st45" d="M389.7,491.5c0-6.3,0-12.7,0-19c4.9-0.8,8.2-3.2,8.4-8.4c0.2-5.6-3.3-8.1-8.4-9.1c0-103.8,0-207.7,0-311.5
			c11.3-0.1,22.5-0.1,33.8-0.2c1.1,0,2.3,0,3.2,0.9c-0.1,11.1-0.2,22.3-0.3,33.4c-6.3,0-12.5,0-18.8,0c-1.8,0-3.6,0-3.4,2.6
			c0.2,2.3,2,1.9,3.4,2c6.3,0,12.5,0,18.8,0c0,4.6,0,9.2,0,13.7c-2.9,0-5.7,0.1-8.6,0.1c-1.5,0-2.5,0.4-2.5,2.3c0,1.8,1,2.3,2.5,2.3
			c2.9,0,5.7,0,8.6,0c0,4.6,0,9.2,0,13.8c-6.3,0-12.6,0-18.9,0c-1.8,0-3.6-0.1-3.4,2.6c0.2,2.3,2,2,3.4,2c6.3,0.1,12.6,0,18.9,0.1
			c0,4.6,0,9.2,0,13.8c-2.9,0-5.7,0-8.6,0c-1.5,0-2.5,0.4-2.5,2.3c0,1.8,1,2.2,2.5,2.2c2.9,0,5.7,0,8.6,0.1c0,4.6,0,9.2,0,13.8
			c-6.3,0-12.5,0-18.8,0c-1.4,0-3.2-0.3-3.4,2c-0.2,2.6,1.7,2.6,3.4,2.6c6.3,0,12.5,0,18.8,0c0,4.6,0,9.2,0,13.8c-2.9,0-5.7,0-8.6,0
			c-1.5,0-2.5,0.5-2.5,2.3c0,1.8,1,2.3,2.5,2.3c2.9,0,5.7,0,8.6,0c0,4.4,0,8.8,0.1,13.2c-6.3,0.1-12.5,0.1-18.8,0.3
			c-1.5,0-3.3-0.2-3.5,1.9c-0.2,2.5,1.6,2.6,3.4,2.6c6.3,0,12.5,0,18.8,0c0,4.5,0,9,0.1,13.5c-2.9,0.1-5.7,0.1-8.6,0.2
			c-1.5,0-2.6,0.4-2.6,2.2c0,1.8,1.1,2.3,2.6,2.3c2.9,0.1,5.7,0.1,8.6,0.2c0,4.7,0,9.3-0.1,14c-6.3,0-12.5,0-18.8,0
			c-1.4,0-3.3-0.3-3.4,2c-0.2,2.5,1.6,2.6,3.4,2.6c6.3,0,12.5,0,18.8,0c0,4.6,0,9.2,0,13.7c-2.8,0-5.7,0-8.6,0
			c-1.5,0-2.6,0.4-2.6,2.2c0,1.8,1.1,2.3,2.6,2.3c2.9,0,5.7,0,8.6,0c0,4.6,0,9.2,0,13.8c-6.3,0-12.5,0-18.8,0
			c-1.4,0-3.3-0.3-3.4,1.9c-0.2,2.5,1.7,2.6,3.5,2.6c6.3,0,12.5,0,18.8,0c0,4.6,0,9.2,0,13.8c-2.8,0-5.7,0-8.5,0.1
			c-1.5,0-2.6,0.4-2.6,2.2c0,1.8,1.1,2.3,2.6,2.3c2.8,0,5.7,0,8.5,0c0,4.6,0,9.2,0,13.8c-6.3,0-12.5,0-18.8,0c-1.4,0-3.3-0.3-3.5,2
			c-0.2,2.5,1.7,2.6,3.5,2.6c6.3,0,12.5,0.1,18.8,0.1c0,4.6,0,9.2,0,13.7c-2.8,0-5.7,0-8.5,0c-1.4,0-2.6,0.4-2.6,2.2
			c0,1.8,1.1,2.2,2.6,2.2c2.8,0.1,5.7,0.1,8.5,0.1c0,4.5,0,9.1,0,13.6c-6.3,0-12.5,0-18.8,0.1c-1.4,0-3.3-0.3-3.5,1.9
			c-0.2,2.5,1.6,2.6,3.4,2.6c6.3,0,12.5,0,18.8,0c0,16,0,32,0.2,48c0,3.6-0.9,5.1-4.8,5C411,491.5,400.4,491.6,389.7,491.5z"/>
		<path class="st44" d="M242.8,435.6c-2.7,6.5-5.5,13-9.7,18.7c-0.3-0.2-0.7-0.2-1.1,0c-2.4-0.2-4.7-0.5-7.1-0.7
			c-1.2-18-1.2-18-17-16.1c-1.6-1.5-1.5-3.4-1.5-5.3c0-81,0.1-161.9,0.1-242.9c0-0.2,0-0.4,0.1-0.6c6,0.1,12.1,0.3,18.1,0.4
			c0,53.8,0,107.7,0,161.5c0,26,0.1,51.9-0.1,77.9c-0.1,5.6,1.8,7.6,7.3,7.1C235.5,435.3,239.1,435.6,242.8,435.6z"/>
		<path class="st46" d="M326,161.4c-0.1,14.7-0.3,29.4-0.4,44.1c-0.1,16,0,32.1-0.1,48.1c0,1.9,0.9,4.9-2.3,4.9
			c-3.1,0-2.2-3.1-2.2-5c-0.1-26.7,0-53.5,0-80.2c0-1.7,0-3.4-0.1-5.2c-0.1-2.5-1.6-3.2-3.8-3.2c-2.3,0-3.7,1-3.8,3.3
			c-0.1,1.9-0.1,3.8-0.1,5.7c0,29.4,1.9,59-0.4,88.2c-4.3,55.8-0.7,111.6-2.1,167.4c-0.1,4.8-1.8,6.5-6.4,6.2
			c-2.1-0.2-4.2,0.2-6.3,0.4c-0.2-0.2-0.3-0.4-0.5-0.6c0.1-4.2,0.4-8.4,0.4-12.6c0-90.7,0-181.4,0-272.2c0-2.5,0.1-5,0.2-7.4
			c7.8,0.6,13.1,4.3,15.4,11.9c0.8,2.8,2.5,3.7,5.3,4C321.2,159.6,324.2,158.5,326,161.4z"/>
		<path class="st44" d="M206.6,180.4c0.2-10.1-1.2-20.3,0.8-30.4c5.7-0.1,11.4-0.1,17-0.2c0.2,0.3,0.3,0.5,0.5,0.8
			c-0.1,9.8-0.2,19.5-0.2,29.3C218.7,180.1,212.7,180.2,206.6,180.4z"/>
		<path class="st45" d="M224.7,179.9c0.1-9.8,0.2-19.5,0.2-29.3c5.8-0.2,11.5-0.3,17.3-0.5c0.3,0.3,0.6,0.6,1,0.9
			c-0.1,9.7-0.2,19.4-0.3,29.1C236.9,180.1,230.8,180,224.7,179.9z"/>
		<path class="st47" d="M224.7,179.9c6.1,0.1,12.2,0.2,18.2,0.3c0,2.9,0,5.9,0,8.8c-6.1,0.1-12.2,0.1-18.3,0.2
			c-6-0.1-12.1-0.3-18.1-0.4c0-2.8,0-5.6,0-8.3C212.7,180.2,218.7,180.1,224.7,179.9z"/>
		<path class="st47" d="M207.9,437.5c15.8-1.9,15.8-1.9,17,16.1c-3.1,0.1-6.3,0.2-9.4,0.2C213,448.4,210.5,443,207.9,437.5z"/>
		<path class="st43" d="M215.5,453.9c3.1-0.1,6.3-0.2,9.4-0.2c2.4,0.2,4.7,0.5,7.1,0.7c-6.6-0.1-8.3,3.6-7.5,9.4
			c0.3,2.4-0.2,4.9-0.3,7.4C220.4,465.8,217.8,459.9,215.5,453.9z"/>
		<path class="st46" d="M242.3,150.2c-5.8,0.2-11.5,0.3-17.3,0.5c-0.2-0.3-0.4-0.5-0.5-0.8c0.1-2.2,0.2-4.3,0.2-6.5
			C231.4,143.6,237.5,145.2,242.3,150.2z"/>
		<path class="st46" d="M224.2,471.1c0.1-2.5,0.6-5,0.3-7.4c-0.7-5.9,1-9.5,7.5-9.4c0.4-0.2,0.7-0.2,1.1,0c-1.1,6.7-5,12.1-8.3,17.9
			C224.6,471.8,224.4,471.5,224.2,471.1z"/>
		<path class="st43" d="M224.7,143.4c-0.1,2.2-0.2,4.3-0.2,6.5c-5.7,0.1-11.4,0.1-17,0.2C212.3,145.6,218,143.1,224.7,143.4z"/>
		<path class="st45" d="M224.7,189.2c6.1-0.1,12.2-0.1,18.3-0.2c0.1,54.2,0.1,108.4,0.2,162.6c0,25.4,0,50.8,0,76.1
			c0,2.7-0.2,5.3-0.4,8c-3.6,0-7.3-0.3-10.9,0c-5.4,0.5-7.3-1.5-7.3-7.1c0.2-26,0.1-51.9,0.1-77.9
			C224.7,296.8,224.7,243,224.7,189.2z"/>
		<path class="st42" d="M297.6,463.2c-5.2,0.5-7.6-2.4-8.7-6.9c-1-4.4-2-8.8-2.8-13.3c-1.1-6.1-0.2-7,5.8-7.2c1.9,0,3.8-0.1,5.7-0.2
			c0.2,0.2,0.4,0.4,0.5,0.6c0,8.8,0,17.6,0.1,26.4C298,462.8,297.8,463,297.6,463.2z"/>
		<path class="st46" d="M426.3,291.9c-6.3,0-12.5,0-18.8,0c-1.8,0-3.7-0.1-3.4-2.6c0.2-2.2,2-1.9,3.5-1.9c6.3-0.1,12.5-0.2,18.8-0.3
			C426.3,288.7,426.3,290.3,426.3,291.9z"/>
		<path class="st46" d="M426.3,438.8c-6.3,0-12.5,0-18.8,0c-1.8,0-3.6-0.1-3.4-2.6c0.2-2.2,2-1.9,3.5-1.9c6.3-0.1,12.5-0.1,18.8-0.1
			C426.3,435.6,426.3,437.2,426.3,438.8z"/>
		<path class="st46" d="M426.3,255.6c-6.3,0-12.5,0-18.8,0c-1.8,0-3.6,0-3.4-2.6c0.2-2.3,2-2,3.4-2c6.3,0,12.5,0,18.8,0
			C426.3,252.6,426.3,254.1,426.3,255.6z"/>
		<path class="st46" d="M426.3,328.9c-6.3,0-12.5,0-18.8,0c-1.8,0-3.6,0-3.4-2.6c0.1-2.3,2-2,3.4-2c6.3,0,12.5,0,18.8,0
			C426.3,325.9,426.3,327.4,426.3,328.9z"/>
		<path class="st46" d="M426.3,365.5c-6.3,0-12.5,0-18.8,0c-1.8,0-3.6-0.1-3.5-2.6c0.1-2.2,2-1.9,3.4-1.9c6.3,0,12.5,0,18.8,0
			C426.3,362.5,426.3,364,426.3,365.5z"/>
		<path class="st46" d="M426.3,402.2c-6.3,0-12.5-0.1-18.8-0.1c-1.8,0-3.6-0.1-3.5-2.6c0.1-2.2,2-1.9,3.5-2c6.3,0,12.5,0,18.8,0
			C426.3,399.1,426.3,400.7,426.3,402.2z"/>
		<path class="st46" d="M426.3,182.2c-6.3,0-12.5,0-18.8,0c-1.4,0-3.3,0.3-3.4-2c-0.2-2.6,1.6-2.6,3.4-2.6c6.3,0,12.5,0,18.8,0
			C426.3,179.2,426.3,180.7,426.3,182.2z"/>
		<path class="st46" d="M426.3,218.9c-6.3,0-12.6,0-18.9-0.1c-1.5,0-3.2,0.3-3.4-2c-0.2-2.6,1.7-2.6,3.4-2.6c6.3,0,12.6,0,18.9,0
			C426.3,215.9,426.3,217.4,426.3,218.9z"/>
		<path class="st46" d="M426.3,310.3c-2.9-0.1-5.7-0.1-8.6-0.2c-1.5,0-2.6-0.5-2.6-2.3c0-1.8,1.2-2.2,2.6-2.2
			c2.9-0.1,5.7-0.1,8.6-0.2C426.4,307.1,426.3,308.7,426.3,310.3z"/>
		<path class="st46" d="M426.3,347.2c-2.9,0-5.7,0-8.6,0c-1.5,0-2.5-0.5-2.6-2.3c0-1.8,1.1-2.2,2.6-2.2c2.9,0,5.7,0,8.6,0
			C426.3,344.2,426.3,345.7,426.3,347.2z"/>
		<path class="st46" d="M426.3,237.3c-2.9,0-5.7,0-8.6-0.1c-1.5,0-2.5-0.4-2.5-2.2c0-1.8,1-2.3,2.5-2.3c2.9,0,5.7,0,8.6,0
			C426.3,234.2,426.3,235.8,426.3,237.3z"/>
		<path class="st46" d="M426.3,383.8c-2.8,0-5.7,0-8.5,0c-1.5,0-2.5-0.5-2.6-2.3c0-1.8,1.1-2.2,2.6-2.2c2.8,0,5.7,0,8.5-0.1
			C426.3,380.7,426.3,382.3,426.3,383.8z"/>
		<path class="st46" d="M426.3,420.5c-2.8,0-5.7-0.1-8.5-0.1c-1.5,0-2.6-0.4-2.6-2.2c0-1.8,1.1-2.2,2.6-2.2c2.8,0,5.7,0,8.5,0
			C426.3,417.5,426.3,419,426.3,420.5z"/>
		<path class="st46" d="M426.3,273.9c-2.9,0-5.7,0-8.6,0c-1.5,0-2.5-0.4-2.5-2.3c0-1.8,1-2.3,2.5-2.3c2.9,0,5.7,0,8.6,0
			C426.3,270.9,426.3,272.4,426.3,273.9z"/>
		<path class="st46" d="M426.3,200.5c-2.9,0-5.7,0-8.6,0c-1.5,0-2.5-0.5-2.5-2.3c0-1.8,1-2.2,2.5-2.3c2.9,0,5.7,0,8.6-0.1
			C426.3,197.5,426.3,199,426.3,200.5z"/>
		<path class="st46" d="M298.1,462.6c1.7,0.7,4.6-0.5,4.8,1.9c0.2,2.6-1.8,4.8-4.5,7.1c-0.3-3.3-0.6-5.9-0.8-8.4
			C297.8,463,298,462.8,298.1,462.6z"/>
		<path class="st43" d="M389.7,455c5,1,8.5,3.5,8.4,9.1c-0.1,5.3-3.5,7.7-8.4,8.4c-4.8-0.8-8.2-3.2-8.3-8.4
			C381.2,458.6,384.8,456.1,389.7,455z"/>
	</g>
</g>
</svg>
