<?xml version="1.0" encoding="utf-8"?>
<!-- Generator: Adobe Illustrator 21.0.2, SVG Export Plug-In . SVG Version: 6.00 Build 0)  -->
<svg version="1.1" id="Layer_1" xmlns="http://www.w3.org/2000/svg" xmlns:xlink="http://www.w3.org/1999/xlink" x="0px" y="0px"
	 viewBox="0 0 625.8 628.8" style="enable-background:new 0 0 625.8 628.8;" xml:space="preserve">
<style type="text/css">
	.st0{fill:#DFDFD0;}
	.st1{fill:#EDDFD3;}
	.st2{fill:#C65C5C;}
	.st3{fill:#DF985E;}
	.st4{fill:#FEFEFE;}
	.st5{fill:#B98051;}
	.st6{fill:#4F5D72;}
	.st7{fill:#465062;}
	.st8{fill:#B9B8AC;}
	.st9{fill:#AE6163;}
	.st10{fill:#D4D7DC;}
	.st11{fill:#6E7883;}
	.st12{fill:#D2D1D1;}
</style>
<g>
	<path class="st0" d="M322.3,606.9c-6.1,0-12.3,0-18.4,0c-0.4-0.4-0.8-0.3-1.2-0.3c-2.1-0.1-4.3-0.1-6.4-0.2
		c-4.9-0.3-9.8-0.7-14.7-1.2c-7.6-0.7-15.2-1.9-22.8-3.3c-13.4-2.5-26.5-6-39.3-10.3c-10.3-3.5-20.5-7.5-30.3-12.2
		c-13.2-6.2-25.9-13.3-38-21.4c-7.8-5.2-15.3-10.8-22.6-16.7c-7.9-6.4-15.3-13.3-22.5-20.3c-2.9-2.8-5.6-6-8.4-8.9
		c-3.8-3.9-7.3-8.1-10.7-12.3c-7-8.6-13.6-17.6-19.6-27c-4.4-6.9-8.6-14-12.5-21.3c-8.3-15.7-15.2-32-20.5-49
		c-2.7-8.8-5.1-17.7-7-26.7c-2.3-10.9-4.1-21.9-5-32.9c-0.5-5.8-1.1-11.5-1.1-17.3c0-0.6,0.2-1.2-0.3-1.7c0-6.2,0-12.5,0-18.7
		c0.6-0.7,0.2-1.6,0.3-2.3c0-1.8,0.2-3.6,0.2-5.4c0.3-5.7,0.9-11.4,1.5-17.1c0.8-7.9,2.1-15.7,3.6-23.4c2.2-11.3,5.2-22.5,8.8-33.4
		c3.6-11.1,7.9-21.9,12.8-32.4c5.8-12.3,12.3-24.3,19.8-35.7c7-10.7,14.6-21,23-30.7c6.3-7.3,12.8-14.5,19.9-21.1
		c4.8-4.5,9.6-8.9,14.7-13.2c7.6-6.4,15.5-12.4,23.7-18c12-8.1,24.5-15.3,37.6-21.6c10.4-5,21-9.3,31.9-13.1
		c11.6-4,23.4-7.2,35.4-9.6c8.3-1.7,16.6-3,25-4c7.8-0.9,15.7-1.6,23.5-1.7c0.4,0,0.8,0,1.1-0.3c6.3,0,12.7,0,19,0
		c0.3,0.3,0.6,0.3,1,0.3c3.8,0,7.7,0.3,11.5,0.6c4.7,0.3,9.3,0.7,13.9,1.3c8.3,1,16.6,2.4,24.8,4.1c10.7,2.3,21.2,5.1,31.5,8.5
		c12.8,4.2,25.2,9.3,37.3,15.3c9.8,4.8,19.3,10.2,28.4,16.1c10.5,6.8,20.6,14.2,30.1,22.3c7.9,6.7,15.5,13.7,22.7,21.2
		c5.2,5.4,10.2,11,15,16.8c7.2,8.7,13.8,17.8,20,27.3c8.8,13.6,16.4,27.8,22.9,42.7c5.5,12.6,10,25.5,13.6,38.7
		c2.5,9.2,4.6,18.5,6.2,27.9c1.2,7,2.2,14,2.8,21.1c0.5,5.6,1,11.2,1.1,16.9c0.1,0.8-0.3,1.6,0.3,2.3c0,6.2,0,12.5,0,18.7
		c-0.3,0.3-0.3,0.6-0.3,1c0,7.1-0.7,14.2-1.4,21.2c-0.7,7.2-1.8,14.4-3.1,21.5c-2.7,14.6-6.5,28.9-11.3,43
		c-3.3,9.6-7.1,19-11.4,28.1c-7.5,15.8-16.2,30.9-26.4,45.2c-6.6,9.2-13.6,18.1-21.3,26.5c-4.2,4.6-8.4,9.1-12.9,13.3
		c-5.3,5-10.6,10-16.2,14.7c-8.1,6.9-16.6,13.2-25.4,19.1c-6.3,4.2-12.8,8.2-19.4,11.9c-10,5.6-20.2,10.7-30.8,15.1
		c-9.3,3.9-18.7,7.2-28.3,10.1c-7.5,2.3-15.2,4.3-22.9,5.9c-10.9,2.3-21.9,4.1-33.1,5.1c-5.9,0.5-11.7,1.1-17.6,1.1
		C323.4,606.7,322.8,606.5,322.3,606.9z M450.4,265.6c0-5.7,0-11.4,0-17.1c0-8,0-15.9,0-23.9c0-5.6,0-11.1,0-16.7c0-0.2,0-0.4,0-0.6
		c0-19.4,0-38.8,0-58.2c0-0.5,0.1-1.1-0.3-1.6c-0.5-7.5-7.7-16-17.7-16c-79.5,0-158.9,0-238.4,0c-9.4,0-17.8,7.8-17.9,17.1
		c-0.2,12.5,0,25.1,0,37.6c0,0.3,0,0.7,0,1c0,17.6,0,35.2,0,52.8c0,0.4,0,0.8,0.1,1.2c0,6,0,12.1,0,18.1c0,8.9,0,17.9,0,26.8
		c0,0.3,0,0.6,0.3,0.8c0,0.2,0,0.3,0,0.5c-0.4,0.5-0.3,1-0.3,1.5c0,14,0,28,0,41.9c0,0.5-0.1,1.1,0.3,1.5c0,3.1,0,6.2,0,9.3
		c-0.3,0.2-0.3,0.6-0.3,0.9c0,5.8,0,11.5,0.1,17.3c0,3.5,0,7,0,10.5c0,5.8,0,11.6,0,17.4c0,1.1,0.2,2.1,0.4,3.2
		c1.8,8.4,9.5,14.6,17.9,14.6c20.1-0.1,40.3,0,60.4,0c3.2,0,6.4,0.2,9.6,0.9c8.7,1.9,15.6,6.2,19.3,14.6c0.9,2,1.2,4.1,1.8,6.1
		c0,1.2,0.1,2.4,0,3.6c-0.5,5.7-0.7,11.3-1.7,16.9c-1.8,10.5-3.1,21.2-8.2,30.9c-1.6,3.1-2.1,6.8-2.4,10.3
		c-0.3,4.5,0.1,8.9,0.9,13.3c-0.2,0.2-0.3,0.5-0.4,0.8c-0.8,3.3-0.6,6.6-0.6,9.9c0.1,5.6,1.6,10.8,4.1,15.7
		c3.5,7,8.8,12.6,15.5,16.6c9,5.4,18.6,7,28.8,4.8c9-2,16.5-6.6,22.5-13.8c7.3-8.7,10-18.7,9.2-29.9c-0.1-1.5-0.2-3-0.8-4.4
		c0-0.4,0.1-0.8,0.2-1.2c1.2-5.9,1.1-11.8-0.2-17.6c-0.6-2.6-1.7-5-2.9-7.4c-1.6-3.2-2.4-6.7-3.2-10.1c-2.1-8.2-3.5-16.6-4.4-25.1
		c-0.4-4.1-0.7-8.2-0.8-12.3c0.8-2.8,1.4-5.6,2.6-8.2c2.6-5.4,6.4-9.6,12.1-12.1c4.5-2,9.3-2.4,14.1-2.5c20.8-0.1,41.5,0,62.3,0
		c0.9,0,1.8,0.1,2.6-0.1c9-1.5,15.1-8.5,15.6-17.4c0.3-5.9,0-11.8,0-17.7c0-3.5,0-7,0-10.5c0-5.8,0-11.5,0.1-17.3
		c0-0.3,0-0.7-0.3-0.9c0-18.3,0-36.5,0-54.8c0.3-0.3,0.2-0.6,0.2-1c0-6.2,0-12.5,0-18.7C450.4,266.8,450.4,266.2,450.4,265.6z"/>
	<path class="st1" d="M20.7,302.7c0.1,0,0.2,0,0.3,0c-0.1,0.8,0.3,1.6-0.3,2.3C20.7,304.3,20.7,303.5,20.7,302.7z"/>
	<path class="st1" d="M605.5,302.7c0.1,0,0.2,0,0.3,0c0,0.8,0,1.6,0,2.3C605.2,304.3,605.6,303.5,605.5,302.7z"/>
	<path class="st2" d="M450.4,207.9c0,5.6,0,11.1,0,16.7c-0.3,0.3-0.2,0.7-0.2,1.1c0,13.3,0,26.6,0,39.9c-0.1,0.6-0.2,1.1-0.2,1.7
		c-0.2,0.7-0.4,1.4-0.7,2.1c-3,7.3-11.7,10.6-18.6,6.9c-5-2.6-7.5-6.9-7.7-12.5c-0.1-3.7,0.4-7.4-0.3-11.1
		c-1.2-6.7-7.4-11.7-14.2-11.4c-6.5,0.3-12.6,6.2-12.9,12.7c-0.2,5.4,0,10.8,0,16.2c0,0.8,0,1.6-0.1,2.3c-0.2,4.8,0.6,9.6-0.7,14.4
		c-1.3,2.6-2.8,5-5.3,6.6c-3.8,2.4-7.7,3.5-12.1,1.7c-4-1.6-6.7-4.5-8.5-8.4c-0.5-1.8-0.7-3.6-0.7-5.4c0.1-2.9,0-5.9,0-8.8
		c0-0.7,0.2-1.5-0.2-2.1c0-6,0-11.9,0-17.9c0.6-3.7,0.1-7.3,0.1-11c-0.2,2.4-0.1,4.7-0.2,7.1c0,1,0.3,2-0.2,3
		c-0.1-0.4-0.2-0.7-0.4-1.1c-2.2-5.4-6.1-8.8-12-9.3c-7.7-0.7-14.4,5.7-14.6,13.5c-0.2,7.3-5.4,13.1-12.9,13.9
		c-5.9,0.6-12.8-3.9-14.3-11.1c-0.3-1.4-0.1-2.8-0.4-4.2c-1.3-7.4-6.9-12.1-14.4-12.1c-40.1,0-80.2,0-120.3,0c-0.7,0-1.4,0-2,0
		c0-17.7,0-35.4,0-53.1c0-0.6,0.2-1.3-0.2-1.8c0-12.5-0.2-25.1,0-37.6c0.2-9.3,8.6-17.1,17.9-17.1c79.5,0,158.9,0,238.4,0
		c10,0,17.2,8.5,17.7,16c0,19.7,0,39.4,0,59.1C450.2,207.1,450.1,207.6,450.4,207.9z"/>
	<path class="st3" d="M176.1,370.6c0-3.5,0-7,0-10.5c41.8,0,83.6,0,125.3,0c49.6,0,99.3,0,148.9,0c0,3.5,0,7,0,10.5
		c-0.5,0.7-0.2,1.6-0.4,2.4c-2,8.7-9.3,14.5-18.2,14.6c-21.7,0-43.4,0-65.1,0c-4.1,0-8.1,0.9-11.8,2.8c-6.9,3.5-10.8,9.4-12.9,16.7
		c-1.5,5-1.2,10-1.1,15.1c0,2.1-0.3,4.3,0.3,6.4c0.2,4.1,0.4,8.2,0.8,12.3c0.9,8.5,2.3,16.8,4.4,25.1c0.9,3.4,1.7,7,3.2,10.1
		c1.2,2.4,2.3,4.8,2.9,7.4c1.3,5.9,1.4,11.8,0.2,17.6c-0.1,0.4-0.1,0.8-0.1,1.2c-0.1,0.3-0.3,0.6-0.4,0.9c-2,7.4-5.9,13.7-11.6,18.9
		c-9.5,8.6-20.5,12.5-33.2,10.3c-16.3-2.8-26.9-12.5-32.4-28c-0.2-0.6-0.2-1.4-0.7-1.9c-0.8-4.4-1.2-8.9-0.9-13.3
		c0.2-3.6,0.7-7.2,2.4-10.3c5.1-9.7,6.4-20.3,8.2-30.9c0.9-5.6,1.1-11.3,1.7-16.9c0.1-1.2,0-2.4,0-3.6c0.3-5.8,0.8-11.7,0-17.5
		c-0.9-7-4.1-12.8-10-16.9c-5.3-3.6-11.2-5.3-17.6-5.4c-21.2-0.1-42.3,0-63.5,0c-7.1,0-13.9-4.5-16.7-11.1
		C176.8,374.6,176.4,372.6,176.1,370.6z"/>
	<path class="st4" d="M176.4,341.8c0-3.1,0-6.2,0-9.3c0-15,0-30,0-45c0-0.2,0-0.3,0-0.5c0.6,0,1.3,0,1.9,0c47.8,0,95.6,0,143.3,0
		c0.6,0,1.3,0,1.9-0.1c2.3,0,4.7,0,7,0c0.6,0,1.2,0.1,1.7,0.1c11.9,0,23.8,0,35.7,0c0,3.9,0,7.9,0.1,11.8c0.1,3.7,0.7,7.1,3,10.1
		c3.4,4.4,9.5,6.5,14.6,4.9c5.8-1.9,9.8-7.1,9.9-12.9c0-4.6,0-9.3,0-13.9c4,0,8-0.1,12-0.1c5.4,0,10.7,0,16.1-0.1
		c0.2,0.1,0.4,0.1,0.5,0.2c0,0.5,0.2,0.9,0.4,1.4c3.2,6.6,11.4,9.4,18,6.3c3.4-1.6,5.6-4.4,7.2-7.7c0.2,0,0.4,0,0.6,0
		c0,18.3,0,36.5,0,54.8c-0.6,0-1.3,0.1-1.9,0.1c-90,0-180,0-270,0C177.6,341.9,177,341.8,176.4,341.8z"/>
	<path class="st5" d="M176.4,341.8c0.6,0,1.3,0.1,1.9,0.1c90,0,180,0,270,0c0.6,0,1.3,0,1.9-0.1c0.3,0.2,0.3,0.6,0.3,0.9
		c0,5.8,0,11.5-0.1,17.3c-49.6,0-99.3,0-148.9,0c-41.8,0-83.6,0-125.3,0c0-5.8,0-11.5-0.1-17.3C176.1,342.4,176.1,342.1,176.4,341.8
		z"/>
	<path class="st6" d="M323.5,286.9c-0.6,0-1.3,0.1-1.9,0.1c-47.8,0-95.6,0-143.3,0c-0.6,0-1.3,0-1.9,0c-0.3-0.2-0.3-0.5-0.3-0.8
		c0-8.9,0-17.9,0-26.8c36.3,0,72.7,0,109,0c5.2,0,10.3-0.1,15.5,0.2c6.4,0.4,12.6,6.5,12.6,13c0,6.1,4.1,11.7,9.4,13.6
		C323,286.3,323.4,286.4,323.5,286.9z"/>
	<path class="st7" d="M323.5,286.9c-0.1-0.5-0.5-0.6-0.8-0.7c-5.4-1.8-9.5-7.5-9.4-13.6c0.1-6.4-6.2-12.5-12.6-13
		c-5.2-0.4-10.3-0.2-15.5-0.2c-36.3,0-72.7,0-109,0c0-6,0-12.1,0-18.1c0.1,0,0.2,0,0.2,0c0.7,0,1.4,0,2,0c40.1,0,80.2,0,120.3,0
		c7.5,0,13.1,4.7,14.4,12.1c0.2,1.4,0.1,2.8,0.4,4.2c1.6,7.2,8.4,11.7,14.3,11.1c7.5-0.8,12.7-6.6,12.9-13.9
		c0.2-7.7,6.9-14.1,14.6-13.5c5.9,0.5,9.8,3.9,12,9.3c0.1,0.4,0.2,0.7,0.4,1.1c0,0.3,0,0.7,0.3,0.9c0,6,0,11.9,0,17.9
		c-0.3-0.2-0.3-0.5-0.4-0.8c-1.7-5.6-7.3-10.3-13.6-10.2c-7.2,0.1-13.4,7.2-13.4,13.4c0,5.6-2.9,9.7-7.7,12.5
		c-0.8,0.5-1.9,0.4-2.4,1.4C328.2,286.9,325.8,286.9,323.5,286.9z"/>
	<path class="st8" d="M341.1,428.5c-0.6-2.1-0.3-4.3-0.3-6.4c0-5.1-0.3-10.1,1.1-15.1c2.1-7.3,6-13.2,12.9-16.7
		c3.7-1.9,7.7-2.8,11.8-2.8c21.7-0.1,43.4,0,65.1,0c8.9,0,16.2-5.8,18.2-14.6c0.2-0.8-0.1-1.7,0.4-2.4c0,5.9,0.3,11.8,0,17.7
		c-0.5,8.9-6.6,15.8-15.6,17.4c-0.9,0.1-1.8,0.1-2.6,0.1c-20.8,0-41.5,0-62.3,0c-4.8,0-9.6,0.5-14.1,2.5c-5.6,2.5-9.5,6.7-12.1,12.1
		C342.5,423,341.8,425.8,341.1,428.5z"/>
	<path class="st8" d="M176.1,370.6c0.3,2,0.7,4,1.5,5.9c2.8,6.5,9.5,11.1,16.7,11.1c21.2,0,42.3,0,63.5,0c6.4,0,12.3,1.7,17.6,5.4
		c6,4.1,9.1,9.9,10,16.9c0.8,5.8,0.2,11.7,0,17.5c-0.6-2-1-4.1-1.8-6.1c-3.8-8.4-10.6-12.7-19.3-14.6c-3.1-0.7-6.3-0.9-9.6-0.9
		c-20.1,0-40.3-0.1-60.4,0c-8.4,0.1-16.1-6.1-17.9-14.6c-0.2-1-0.4-2.1-0.4-3.2C176.1,382.2,176.1,376.4,176.1,370.6z"/>
	<path class="st8" d="M274.1,502.5c0.5,0.5,0.5,1.3,0.7,1.9c5.5,15.5,16.1,25.2,32.4,28c12.7,2.2,23.7-1.7,33.2-10.3
		c5.7-5.2,9.6-11.5,11.6-18.9c0.1-0.3,0.3-0.6,0.4-0.9c0.6,1.4,0.7,2.9,0.8,4.4c0.9,11.1-1.9,21.2-9.2,29.9
		c-6,7.1-13.4,11.8-22.5,13.8c-10.2,2.2-19.8,0.6-28.8-4.8c-6.8-4-12-9.6-15.5-16.6c-2.5-4.9-4-10.1-4.1-15.7
		c-0.1-3.3-0.2-6.6,0.6-9.9C273.8,502.9,273.9,502.7,274.1,502.5z"/>
	<path class="st7" d="M424.1,287.1c-0.2-0.1-0.4-0.1-0.5-0.2c-0.8-3.6-0.5-7.2-0.6-10.9c0-0.9,0-1.9,0-2.8c0-3.4-1.2-6.4-3.5-8.9
		c-7.1-7.9-19.5-5.4-23.2,4.6c-0.2,0.5-0.1,1.1-0.8,1.3c0-5.4-0.2-10.8,0-16.2c0.3-6.6,6.5-12.4,12.9-12.7c6.8-0.3,13,4.7,14.2,11.4
		c0.6,3.7,0.2,7.4,0.3,11.1c0.2,5.7,2.7,9.9,7.7,12.5c7,3.7,15.6,0.4,18.6-6.9c0.3-0.7,0.5-1.4,0.7-2.1c0.1,0,0.3,0,0.4,0
		c0,6.2,0,12.5,0,18.7c0,0.3,0.1,0.7-0.2,1c-0.2,0-0.4,0-0.6,0c-8.1,0-16.1,0-24.2,0C424.9,287,424.5,287.1,424.1,287.1z"/>
	<path class="st9" d="M450.4,207.9c-0.3-0.4-0.2-0.8-0.2-1.3c0-19.7,0-39.4,0-59.1c0.3,0.5,0.3,1,0.3,1.6c0,19.4,0,38.8,0,58.2
		C450.4,207.5,450.4,207.7,450.4,207.9z"/>
	<path class="st9" d="M176.4,241.3c-0.1,0-0.1,0.1-0.2,0c0-0.4-0.1-0.8-0.1-1.2c0-17.6,0-35.2,0-52.8c0-0.3,0-0.7,0-1
		c0.4,0.6,0.2,1.2,0.2,1.8C176.4,205.9,176.4,223.6,176.4,241.3z"/>
	<path class="st10" d="M176.3,287.5c0,15,0,30,0,45c-0.4-0.5-0.3-1-0.3-1.5c0-14,0-28,0-41.9C176.1,288.6,175.9,288,176.3,287.5z"/>
	<path class="st9" d="M450.2,265.6c0-13.3,0-26.6,0-39.9c0-0.4,0-0.8,0.2-1.1c0,8,0,15.9,0,23.9c0,5.7,0,11.4,0,17.1
		C450.3,265.6,450.3,265.6,450.2,265.6z"/>
	<path class="st11" d="M450.2,265.6c0.1,0,0.1,0,0.2,0c0,0.6,0,1.2,0,1.8c-0.1,0-0.3,0-0.4,0C450,266.7,450.1,266.2,450.2,265.6z"/>
	<path class="st6" d="M330.5,286.9c0.5-1,1.6-0.9,2.4-1.4c4.9-2.8,7.7-6.9,7.7-12.5c0-6.2,6.2-13.3,13.4-13.4
		c6.2-0.1,11.8,4.6,13.6,10.2c0.1,0.3,0.1,0.6,0.4,0.8c0.4,0.7,0.2,1.4,0.2,2.1c0,2.9,0.1,5.9,0,8.8c0,1.9,0.2,3.7,0.7,5.4
		c-0.3,0-0.6,0-0.9,0c-11.9,0-23.8,0-35.7,0C331.7,287,331.1,286.9,330.5,286.9z"/>
	<path class="st6" d="M395.5,270.2c0.6-0.2,0.6-0.8,0.8-1.3c3.7-10,16-12.5,23.2-4.6c2.2,2.5,3.5,5.5,3.5,8.9c0,0.9,0,1.9,0,2.8
		c0,3.6-0.3,7.3,0.6,10.9c-5.4,0-10.7,0-16.1,0.1c-4,0-8,0-12,0.1c-0.2,0-0.5-0.1-0.7-0.1c1.2-4.7,0.5-9.6,0.7-14.4
		C395.5,271.8,395.5,271,395.5,270.2z"/>
	<path class="st12" d="M394.8,287c0.2,0,0.5,0.1,0.7,0.1c0,4.6,0,9.3,0,13.9c0,5.8-4,11-9.9,12.9c-5.1,1.7-11.1-0.4-14.6-4.9
		c-2.3-3-3-6.5-3-10.1c-0.1-3.9,0-7.9-0.1-11.8c0.3,0,0.6,0,0.9,0c1.8,3.9,4.5,6.7,8.5,8.4c4.4,1.8,8.4,0.7,12.1-1.7
		C392,292,393.5,289.6,394.8,287z"/>
	<path class="st9" d="M368,252.7c-0.3-0.2-0.3-0.6-0.3-0.9c0.5-1,0.2-2,0.2-3c0-2.4,0-4.7,0.2-7.1C368.1,245.3,368.6,249,368,252.7z
		"/>
	<path class="st12" d="M424.1,287.1c0.4,0,0.9-0.1,1.3-0.1c8.1,0,16.1,0,24.2,0c-1.5,3.4-3.8,6.1-7.2,7.7c-6.6,3.2-14.8,0.3-18-6.3
		C424.2,288,424,287.6,424.1,287.1z"/>
</g>
</svg>
